<svg
  xmlns="http://www.w3.org/2000/svg"
  viewBox="0 0 24 24"
  height="24"
  width="24"
>
  <g>
    <rect
      x="0"
      y="0"
      width="24"
      height="24"
      style="fill:rgb(89.411765%,9.019608%,11.764706%);fill-opacity:1;stroke:none;"
    />
    <path
      style=" stroke:none;fill-rule:evenodd;fill:rgb(100%,92.54902%,0%);fill-opacity:1;"
      d="M 9.445312 13.035156 C 9.496094 13.035156 9.542969 13.035156 9.59375 13.035156 C 9.542969 13.035156 9.496094 13.035156 9.445312 13.035156 Z M 9.527344 14.1875 L 9.640625 14.210938 Z M 21.34375 11.335938 C 21.300781 11.132812 21.25 10.921875 21.207031 10.71875 C 20.148438 10.957031 19.09375 11.082031 18.035156 11.3125 C 18.410156 10.320312 19.199219 9.378906 19.796875 8.324219 C 20.027344 7.964844 20.195312 7.570312 20.296875 7.15625 C 20.472656 6.125 20.027344 5.621094 19.019531 5.792969 C 18.707031 5.867188 18.382812 5.917969 18.058594 5.984375 C 17.058594 6.207031 15.855469 6.316406 15.5 6.558594 C 15.238281 6.71875 15.101562 7.027344 15.160156 7.328125 C 15.160156 7.328125 15.160156 7.339844 15.160156 7.347656 C 15.039062 7.351562 14.921875 7.359375 14.804688 7.382812 L 13.863281 7.597656 C 12.859375 7.820312 11.648438 8.035156 11.289062 8.28125 C 11.03125 8.453125 10.90625 8.765625 10.96875 9.066406 L 11.085938 9.546875 C 11.117188 9.648438 11.140625 9.632812 11.214844 9.617188 L 14.316406 8.929688 C 13.835938 10.101562 12.832031 11.433594 12.242188 12.800781 C 12.152344 12.148438 11.996094 11.503906 11.777344 10.882812 C 11.210938 9.621094 10.023438 9.203125 8.722656 9.542969 C 8.1875 9.648438 7.6875 9.894531 7.285156 10.265625 C 7.042969 10.496094 6.902344 10.8125 6.890625 11.144531 C 6.886719 11.359375 6.910156 11.574219 6.964844 11.777344 C 7.003906 11.933594 7.042969 12.066406 7.148438 11.851562 C 7.308594 11.546875 8 11.15625 8.3125 11.035156 C 8.421875 10.992188 8.535156 10.957031 8.648438 10.933594 C 9.152344 10.820312 9.8125 10.726562 10.179688 11.1875 C 10.3125 11.359375 10.398438 11.570312 10.417969 11.789062 C 9.777344 11.878906 9.144531 12.039062 8.539062 12.269531 C 7.945312 12.476562 7.46875 12.921875 7.21875 13.496094 L 5.351562 8.9375 C 4.992188 8.269531 4.488281 8.0625 3.875 8.199219 L 2.730469 8.605469 C 2.648438 8.640625 2.683594 8.722656 2.730469 8.828125 L 5.125 14.640625 C 5.410156 15.210938 5.386719 15.632812 5.136719 15.941406 C 4.640625 16.394531 4.265625 16.660156 2.851562 16.703125 C 2.648438 16.703125 2.59375 16.703125 2.6875 16.941406 C 3.226562 18.246094 3.363281 18.664062 5.0625 18.382812 C 5.929688 18.175781 6.703125 17.691406 7.265625 17 C 7.597656 16.523438 7.777344 15.953125 7.777344 15.371094 C 8.105469 15.675781 8.527344 15.859375 8.976562 15.894531 C 9.613281 15.964844 10.257812 15.890625 10.867188 15.6875 C 11.363281 15.519531 11.785156 15.191406 12.066406 14.746094 L 12.273438 14.292969 C 12.542969 14.632812 13.054688 14.683594 13.550781 14.5 L 16.714844 13.777344 C 17.089844 13.679688 17.332031 13.3125 17.28125 12.929688 C 17.433594 12.917969 17.585938 12.894531 17.734375 12.855469 C 18.789062 12.613281 19.683594 12.503906 20.738281 12.265625 C 21.148438 12.160156 21.410156 11.757812 21.34375 11.335938 Z M 10.957031 13.964844 C 10.957031 14.242188 10.835938 14.503906 10.628906 14.6875 C 10.210938 14.6875 9.808594 14.507812 9.53125 14.1875 C 9.375 14.136719 9.207031 14.136719 9.054688 14.1875 C 9.335938 14.488281 9.679688 14.722656 10.054688 14.886719 L 10.003906 14.886719 C 10.078125 14.898438 10.148438 14.910156 10.21875 14.929688 C 9.941406 15.050781 9.628906 15.050781 9.351562 14.929688 C 9.074219 14.808594 8.859375 14.574219 8.765625 14.289062 C 8.691406 14.097656 8.675781 13.894531 8.71875 13.695312 C 8.75 13.566406 8.832031 13.453125 8.945312 13.378906 C 8.941406 13.304688 8.957031 13.234375 8.996094 13.171875 C 9.476562 12.539062 10.640625 12.738281 10.863281 13.492188 C 10.488281 13.234375 10.050781 13.078125 9.601562 13.035156 C 9.652344 13.15625 9.722656 13.273438 9.804688 13.378906 C 10.226562 13.484375 10.617188 13.675781 10.960938 13.945312 C 10.960938 13.945312 10.957031 13.949219 10.957031 13.964844 Z M 16.296875 11.175781 C 16.058594 11.765625 16.058594 12.183594 16.1875 12.460938 L 13.964844 12.941406 C 14.339844 11.945312 15.015625 10.984375 15.605469 9.929688 C 15.859375 9.574219 16.023438 9.160156 16.085938 8.730469 C 16.160156 8.410156 16.136719 8.074219 16.011719 7.769531 C 16.84375 7.605469 17.671875 7.476562 18.511719 7.289062 C 18.039062 8.488281 16.886719 9.808594 16.296875 11.175781 Z M 16.296875 11.175781 "
    />
  </g>
</svg>
