<svg
  xmlns="http://www.w3.org/2000/svg"
  viewBox="0 0 24 24"
  height="24"
  width="24"
>
  <g>
    <rect
      x="0"
      y="0"
      width="24"
      height="24"
      style="fill:rgb(12.54902%,12.54902%,12.54902%);fill-opacity:1;stroke:none;"
    />
    <path
      style=" stroke:none;fill-rule:evenodd;fill:rgb(96.078432%,43.137255%,0%);fill-opacity:1;"
      d="M 11.472656 10.753906 C 10.777344 10.585938 9.695312 10.65625 9.023438 10.992188 C 9.121094 10.535156 8.519531 10.054688 8.761719 9.71875 C 8.929688 9.550781 9.503906 9.550781 10.007812 9.816406 L 10.007812 8.902344 C 8.664062 8.710938 8.015625 9.886719 8.089844 11.496094 L 7.464844 11.929688 L 7.464844 12.457031 L 8.039062 11.976562 L 8.039062 14.136719 L 9.121094 14.160156 L 9.070312 11.28125 C 9.625 10.921875 10.320312 10.679688 10.894531 10.726562 C 11.089844 10.726562 11.28125 10.726562 11.472656 10.753906 Z M 12.480469 11.207031 C 12.238281 10.945312 11.878906 10.777344 11.496094 10.753906 L 11.160156 10.824219 C 11.0625 10.800781 10.992188 10.777344 10.894531 10.777344 C 10.679688 10.824219 10.464844 10.894531 10.246094 10.992188 C 9.214844 11.542969 9.144531 12.480469 9.527344 13.320312 C 9.839844 13.894531 10.320312 14.207031 11.089844 14.28125 C 11.808594 14.351562 12.695312 14.015625 12.984375 13.105469 C 13.199219 12.289062 12.769531 11.449219 12.480469 11.207031 Z M 12.097656 13.511719 C 12.023438 13.871094 11.542969 14.0625 11.257812 13.871094 C 10.585938 13.464844 10.222656 12.121094 10.320312 11.496094 C 10.390625 11.160156 10.824219 10.992188 11.113281 11.113281 C 11.59375 11.28125 12.214844 12.71875 12.097656 13.511719 Z M 14.257812 11.328125 L 14.257812 10.800781 L 13.222656 10.800781 L 13.222656 14.136719 L 14.28125 14.136719 L 14.28125 12.023438 C 14.425781 10.992188 15.550781 11.230469 15.550781 11.902344 L 15.550781 14.136719 L 16.585938 14.136719 L 16.585938 11.519531 C 16.441406 10.824219 15.097656 10.390625 14.257812 11.328125 Z M 19.273438 10.03125 C 20.328125 10.441406 21.550781 11.472656 21.550781 12.457031 C 21.550781 13.511719 20.398438 14.472656 19.273438 14.878906 L 21.601562 14.878906 L 21.601562 10.03125 Z M 4.726562 10.03125 L 2.398438 10.03125 L 2.398438 14.878906 L 4.726562 14.878906 C 3.625 14.472656 2.449219 13.511719 2.449219 12.457031 C 2.425781 11.496094 3.671875 10.464844 4.726562 10.03125 Z M 19.992188 13.632812 C 20.0625 13.511719 19.96875 13.441406 19.824219 13.558594 C 18.960938 14.183594 17.878906 13.753906 17.902344 12.480469 L 20.136719 12.480469 C 20.160156 11.785156 19.824219 11.113281 19.320312 10.847656 C 18.695312 10.558594 17.710938 10.65625 17.160156 11.328125 C 16.65625 11.953125 16.726562 13.054688 17.160156 13.609375 C 17.664062 14.28125 19.03125 14.449219 19.824219 13.921875 C 19.847656 13.894531 19.945312 13.726562 19.992188 13.632812 Z M 18.742188 11.015625 C 19.007812 11.089844 19.152344 11.472656 19.128906 12.167969 L 17.902344 12.167969 C 17.902344 11.351562 18.238281 10.921875 18.742188 11.015625 Z M 18.742188 11.015625 "
    />
    <path
      style=" stroke:none;fill-rule:evenodd;fill:rgb(53.725493%,70.19608%,13.725491%);fill-opacity:1;"
      d="M 6.40625 10.777344 L 6.40625 13.273438 C 6.070312 13.871094 5.207031 13.777344 5.207031 13.007812 L 5.207031 10.777344 L 4.105469 10.777344 L 4.105469 13.488281 C 4.246094 14.207031 5.664062 14.566406 6.503906 13.65625 L 6.503906 14.113281 L 7.464844 14.113281 L 7.464844 10.777344 Z M 6.40625 10.777344 "
    />
  </g>
</svg>
