<svg
  xmlns="http://www.w3.org/2000/svg"
  viewBox="0 0 24 24"
  height="24"
  width="24"
>
  <g>
    <rect
      x="0"
      y="0"
      width="24"
      height="24"
      style="fill:rgb(0%,56.862748%,82.352942%);fill-opacity:1;stroke:none;"
    />
    <path
      style=" stroke:none;fill-rule:nonzero;fill:rgb(96.470588%,97.647059%,98.431373%);fill-opacity:1;"
      d="M 20.230469 4.871094 C 19.945312 4.488281 19.367188 4.175781 18.335938 4.078125 C 17.832031 4.03125 17.230469 4.054688 16.609375 4.199219 C 15.839844 4.367188 14.832031 4.824219 14.230469 5.230469 C 13.511719 5.734375 12.984375 6.457031 12.671875 7.128906 C 12.382812 7.753906 12.238281 8.351562 12.191406 8.710938 C 12.167969 8.734375 11.953125 8.902344 11.855469 8.953125 C 10.726562 8.734375 9 8.953125 7.414062 9.601562 C 6.382812 10.03125 5.328125 10.632812 4.679688 11.183594 C 4.054688 11.710938 3.648438 12.167969 3.40625 12.601562 C 3.214844 12.9375 3.121094 13.296875 3.121094 13.703125 C 3.121094 14.257812 3.335938 14.808594 3.742188 15.097656 C 4.464844 15.625 5.496094 15.40625 6.144531 14.953125 C 6.574219 14.640625 7.03125 14.089844 7.464844 13.535156 C 7.777344 13.128906 8.089844 12.742188 8.304688 12.480469 C 8.808594 11.878906 9.769531 10.703125 10.703125 10.152344 C 11.207031 9.863281 11.664062 9.839844 12.046875 10.078125 C 12.023438 10.390625 12.023438 10.609375 12.023438 10.945312 C 12.023438 11.976562 12.214844 13.96875 12.695312 15.335938 C 13.246094 16.921875 13.824219 17.953125 14.664062 18.839844 C 15.550781 19.753906 16.800781 20.398438 17.734375 19.96875 C 18.695312 19.511719 18.984375 17.878906 18.527344 16.175781 C 18.144531 14.640625 17.039062 13.03125 16.34375 12.191406 C 15.601562 11.28125 14.976562 10.753906 14.449219 10.320312 C 14.039062 9.984375 13.511719 9.550781 12.71875 9.238281 C 12.769531 9 12.910156 8.566406 12.984375 8.398438 C 13.105469 8.351562 13.175781 8.304688 13.320312 8.257812 C 13.753906 8.089844 14.496094 7.847656 15.40625 7.632812 C 16.511719 7.367188 17.617188 7.078125 18.40625 6.816406 C 19.175781 6.550781 19.753906 6.265625 20.015625 6.023438 C 20.28125 5.785156 20.375 5.519531 20.375 5.328125 C 20.398438 5.207031 20.328125 5.039062 20.230469 4.871094 Z M 20.230469 4.871094 "
    />
  </g>
</svg>
