<svg version="1.1" id="Layer_1" xmlns="http://www.w3.org/2000/svg" x="0" y="0" width="86" height="86" xml:space="preserve"><style>.st0{fill-rule:evenodd;clip-rule:evenodd;fill:#de0e93}</style><path class="st0" d="M43 64.3c-11.8 0-21.3-9.6-21.3-21.3S31.2 21.7 43 21.7 64.3 31.2 64.3 43 54.8 64.3 43 64.3m30.2-24.5l-.2-.1c-3-1.9-4.1-5.8-2.4-8.9l.1-.2c.6-1.1.6-2.5 0-3.6s-1.8-1.8-3.1-1.9h-.2c-3.6-.1-6.4-3-6.5-6.5v-.2c0-1.3-.7-2.5-1.9-3.1-1.1-.7-2.5-.7-3.6 0l-.2.1c-3.1 1.6-7.1.6-8.9-2.4l-.1-.2c-.7-1.1-1.9-1.8-3.2-1.8s-2.5.7-3.2 1.8l-.1.2c-1.9 3-5.8 4.1-8.9 2.4l-.2-.1c-1.1-.6-2.5-.6-3.6 0-1.1.7-1.8 1.8-1.9 3.1v.2c-.1 3.6-3 6.4-6.5 6.5h-.2c-1.3 0-2.5.7-3.1 1.9s-.7 2.5 0 3.6l.1.2c1.7 3.1.7 7.1-2.4 8.9l-.2.1c-1.1.7-1.8 1.9-1.8 3.2s.7 2.5 1.8 3.2l.2.1c3 1.9 4.1 5.8 2.4 8.9l-.1.2c-.6 1.1-.6 2.5 0 3.6s1.8 1.8 3.1 1.8h.2c3.6.1 6.4 3 6.5 6.5v.2c0 1.3.7 2.5 1.9 3.1 1.1.7 2.5.7 3.6 0l.2-.1c3.1-1.7 7.1-.7 8.9 2.4l.1.2c.7 1.1 1.9 1.8 3.2 1.8s2.5-.7 3.2-1.8l.1-.2c1.9-3 5.8-4.1 8.9-2.4l.2.1c1.1.6 2.5.6 3.6 0 1.1-.7 1.8-1.8 1.9-3.1v-.2c.1-3.6 3-6.4 6.5-6.5h.2c1.3 0 2.5-.7 3.1-1.8s.7-2.5 0-3.6l-.1-.2c-1.6-3.1-.6-7.1 2.4-8.9l.2-.1c1.1-.7 1.8-1.9 1.8-3.2s-.7-2.5-1.8-3.2"/><path d="M43 64.3c-11.8 0-21.3-9.6-21.3-21.3S31.2 21.7 43 21.7 64.3 31.2 64.3 43 54.8 64.3 43 64.3" fill-rule="evenodd" clip-rule="evenodd" fill="#fff"/><path class="st0" d="M51.2 33.3c-.6-.5-1.5-.4-2 .2L41 42.7l-3.8-3.5c-.3-.2-.6-.4-1-.4s-.7.1-1 .4l-3.8 3.6c-.5.5-.5 1.3 0 1.9l9 8.5c.3.2.6.4 1 .4h.1c.4 0 .8-.2 1-.5l13-14.5c.2-.3.4-.6.3-1s-.2-.7-.5-.9l-4.1-3.4zM29 7.9c.8-.3 1.2-1.3.8-2.1v-.1l-.1-.2L28 1c-.3-.8-1.2-1.2-2-.9-.8.3-1.2 1.3-.8 2.1L27 6.7V7c.3.8 1.3 1.2 2 .9M7.9 57.1c-.3-.9-1.3-1.4-2.1-1h-.1l-.2.1L1 58.4c-.8.4-1.2 1.5-.9 2.4s1.3 1.4 2.1 1l4.5-2.2.2-.1H7c.8-.3 1.2-1.4.9-2.4M5.5 29.7l.2.1c.8.4 1.8-.1 2.1-1 .3-.9-.1-2-.9-2.4l-.2-.1-4.5-2.2c-.8-.4-1.8.1-2.1 1-.3.9 0 2 .9 2.4l4.5 2.2zM57 78.1c-.8.3-1.2 1.3-.8 2.1v.1l.1.2L58 85c.3.8 1.2 1.2 2 .9.8-.3 1.2-1.3.8-2.1L59 79.3V79c-.3-.8-1.3-1.2-2-.9m26.8-54l-4.5 2.2-.2.1H79c-.8.4-1.2 1.5-.9 2.4.3.9 1.3 1.4 2.1 1h.1l.2-.1 4.5-2.2c.8-.4 1.2-1.5.9-2.4-.4-.9-1.3-1.4-2.1-1m-3.3 32.2l-.2-.1c-.8-.4-1.8.1-2.1 1-.3.9 0 2 .9 2.4l.2.1 4.5 2.2c.8.4 1.8-.1 2.1-1 .3-.9 0-2-.9-2.4l-4.5-2.2zM59 7l.1-.2 1.8-4.5c.3-.8 0-1.8-.8-2.1-.8-.3-1.7 0-2 .9l-1.8 4.5-.1.2c-.3.8 0 1.8.8 2.1.7.3 1.7-.1 2-.9M27 79l-.1.2-1.8 4.5c-.3.8 0 1.8.8 2.1.8.3 1.7-.1 2-.9l1.8-4.5.1-.2c.3-.8 0-1.8-.8-2.1s-1.7.1-2 .9"/><path class="st0" d="M39 2c.6 0 1-.4 1-1 0-.5-.4-1-1-1s-1 .4-1 1 .4 1 1 1M8.3 14.7c.4.4 1 .4 1.4 0 .4-.4.4-1 0-1.4l-.1-.1c-.4-.4-1-.4-1.4 0-.3.5-.3 1.1.1 1.5zM39 84c-.6 0-1 .4-1 1 0 .5.4 1 1 1s1-.4 1-1-.4-1-1-1m30.7-12.7c-.4-.4-1-.4-1.4 0-.4.4-.4 1 0 1.4l.1.1c.4.4 1 .4 1.4 0 .3-.5.3-1.1-.1-1.5zm0-56.6c.4-.4.4-1.1.1-1.4-.4-.4-1-.4-1.4 0l-.1.1c-.4.4-.4 1 0 1.4.4.3 1 .3 1.4-.1M8.3 71.3c-.4.4-.4 1.1-.1 1.4.4.4 1 .4 1.4 0l.1-.1c.4-.4.4-1 0-1.4-.4-.3-1-.3-1.4.1m-8-29c-.4.4-.4 1.1-.1 1.4s1 .4 1.4 0l.1-.1c.4-.4.4-1 0-1.4-.4-.3-1-.3-1.4.1m78 0c-.4.4-.4 1.1-.1 1.4s1 .4 1.4 0l.1-.1c.4-.4.4-1 0-1.4-.4-.3-1-.3-1.4.1" transform="translate(4)"/></svg>