<svg height="34" width="34" xmlns="http://www.w3.org/2000/svg"><g fill="none" fill-rule="evenodd"><circle cx="17" cy="17" fill="#b8b9d1" fill-rule="nonzero" r="17"/><path d="M16.5 22a1.5 1.5 0 1 1 .001 2.999A1.5 1.5 0 0 1 16.5 22m1.254-2.35c-.001.745-.598 1.35-1.334 1.35s-1.334-.605-1.334-1.35c-.007-.39-.01-.623-.01-.71 0-.872.142-1.59.43-2.154.284-.561.853-1.196 1.71-1.902.857-.702 1.37-1.163 1.536-1.383a1.86 1.86 0 0 0 .388-1.143c0-.572-.228-1.065-.687-1.473-.455-.411-1.07-.616-1.845-.616-.747 0-1.37.216-1.874.645-.501.432-.846 1.088-1.035 1.97a1.362 1.362 0 0 1-1.344 1.2 1.363 1.363 0 0 1-1.345-1.546c.078-1.264.608-2.333 1.594-3.216.985-.884 2.28-1.322 3.88-1.322 1.686 0 3.027.447 4.022 1.337S22 11.26 22 12.446c0 .65-.181 1.275-.547 1.857-.367.584-1.146 1.38-2.345 2.389-.618.52-1.002.94-1.152 1.258-.15.317-.216.881-.202 1.7" fill="#fff"/></g></svg>