<svg
  xmlns="http://www.w3.org/2000/svg"
  viewBox="0 0 24 24"
  height="24"
  width="24"
>
  <g>
    <rect
      x="0"
      y="0"
      width="24"
      height="24"
      style="fill:rgb(53.725493%,78.823531%,20.392157%);fill-opacity:1;stroke:none;"
    />
    <path
      style=" stroke:none;fill-rule:evenodd;fill:rgb(100%,100%,100%);fill-opacity:1;"
      d="M 11.359375 10.453125 C 10.824219 9.808594 9.988281 9.496094 9.160156 9.632812 C 8.265625 9.738281 7.507812 10.335938 7.199219 11.183594 C 6.851562 11.988281 6.964844 12.917969 7.492188 13.617188 C 7.878906 14.179688 8.492188 14.546875 9.171875 14.625 C 9.28125 14.636719 9.316406 14.609375 9.316406 14.511719 C 9.316406 14.292969 9.316406 14.070312 9.316406 13.851562 C 9.316406 13.765625 9.277344 13.722656 9.1875 13.707031 C 8.8125 13.632812 8.480469 13.425781 8.253906 13.121094 C 7.980469 12.761719 7.867188 12.308594 7.941406 11.867188 C 8.015625 11.421875 8.265625 11.03125 8.640625 10.777344 C 9.324219 10.328125 10.238281 10.472656 10.75 11.113281 C 11.25 11.753906 11.210938 12.664062 10.652344 13.253906 C 10.429688 13.488281 10.144531 13.644531 9.828125 13.707031 C 9.742188 13.722656 9.6875 13.757812 9.695312 13.863281 C 9.703125 13.964844 9.695312 14.074219 9.695312 14.179688 C 9.695312 14.285156 9.695312 14.40625 9.695312 14.519531 C 9.695312 14.632812 9.730469 14.640625 9.820312 14.628906 C 11.167969 14.441406 12.121094 13.21875 11.976562 11.867188 C 11.929688 11.339844 11.710938 10.84375 11.359375 10.453125 Z M 16.101562 10.210938 C 15.789062 9.867188 15.34375 9.679688 14.878906 9.695312 C 14.097656 9.695312 13.3125 9.695312 12.53125 9.695312 C 12.390625 9.695312 12.390625 9.695312 12.390625 9.839844 C 12.390625 10.597656 12.390625 11.351562 12.390625 12.109375 C 12.390625 12.863281 12.390625 13.621094 12.390625 14.375 C 12.390625 14.53125 12.402344 14.542969 12.558594 14.542969 L 13.152344 14.542969 C 13.339844 14.542969 13.355469 14.527344 13.355469 14.335938 C 13.355469 13.140625 13.355469 11.945312 13.355469 10.753906 C 13.355469 10.605469 13.355469 10.601562 13.503906 10.601562 L 14.222656 10.601562 C 14.453125 10.59375 14.683594 10.601562 14.910156 10.621094 C 15.167969 10.640625 15.394531 10.800781 15.496094 11.039062 C 15.554688 11.203125 15.578125 11.378906 15.570312 11.550781 C 15.570312 12.492188 15.570312 13.433594 15.570312 14.375 C 15.570312 14.539062 15.570312 14.546875 15.734375 14.546875 L 16.320312 14.546875 C 16.472656 14.546875 16.476562 14.546875 16.476562 14.386719 C 16.476562 13.410156 16.476562 12.429688 16.476562 11.449219 C 16.480469 11.257812 16.464844 11.066406 16.429688 10.875 C 16.378906 10.628906 16.265625 10.394531 16.101562 10.203125 Z M 21.121094 13.222656 C 21.121094 12.9375 21.121094 12.648438 21.121094 12.363281 C 21.121094 12.214844 21.121094 12.210938 20.96875 12.207031 L 20.375 12.207031 C 20.183594 12.207031 20.183594 12.207031 20.183594 12.402344 C 20.183594 12.800781 20.183594 13.199219 20.183594 13.601562 C 20.183594 13.671875 20.164062 13.722656 20.082031 13.730469 C 19.957031 13.730469 19.839844 13.769531 19.71875 13.777344 C 19.113281 13.816406 18.527344 13.558594 18.144531 13.085938 C 17.933594 12.835938 17.8125 12.523438 17.792969 12.199219 C 17.761719 11.683594 17.980469 11.183594 18.382812 10.859375 C 19.023438 10.324219 19.933594 10.257812 20.648438 10.695312 C 20.726562 10.746094 20.765625 10.726562 20.804688 10.652344 C 20.890625 10.480469 20.976562 10.308594 21.070312 10.144531 C 21.09375 10.121094 21.101562 10.085938 21.089844 10.054688 C 21.082031 10.023438 21.058594 10 21.027344 9.992188 C 20.917969 9.929688 20.800781 9.875 20.6875 9.824219 C 20.183594 9.617188 19.632812 9.550781 19.097656 9.636719 C 18.472656 9.726562 17.898438 10.027344 17.46875 10.484375 C 16.972656 10.992188 16.734375 11.699219 16.828125 12.40625 C 16.898438 13.011719 17.199219 13.570312 17.671875 13.957031 C 18.1875 14.40625 18.851562 14.648438 19.535156 14.640625 C 20.058594 14.644531 20.570312 14.515625 21.023438 14.257812 C 21.089844 14.226562 21.125 14.15625 21.117188 14.085938 C 21.121094 13.800781 21.121094 13.511719 21.121094 13.222656 Z M 6.867188 13.761719 C 6.808594 13.714844 6.726562 13.75 6.652344 13.75 C 6.03125 13.75 5.410156 13.75 4.789062 13.75 C 4.613281 13.765625 4.433594 13.761719 4.261719 13.734375 C 4.273438 13.691406 4.292969 13.65625 4.320312 13.621094 L 5.363281 12.132812 C 5.765625 11.566406 6.160156 10.996094 6.5625 10.429688 C 6.707031 10.269531 6.78125 10.054688 6.761719 9.839844 C 6.742188 9.6875 6.761719 9.683594 6.605469 9.683594 L 3.140625 9.683594 C 3.0625 9.683594 3.027344 9.710938 3.027344 9.796875 L 3.027344 10.386719 C 3.027344 10.488281 3.082031 10.527344 3.167969 10.515625 C 3.238281 10.511719 3.308594 10.511719 3.375 10.515625 L 5.167969 10.515625 C 5.261719 10.5 5.355469 10.507812 5.445312 10.527344 L 5.367188 10.644531 L 4.558594 11.746094 C 4.078125 12.425781 3.601562 13.105469 3.097656 13.777344 C 2.9375 13.945312 2.859375 14.171875 2.878906 14.398438 C 2.898438 14.542969 2.878906 14.546875 3.035156 14.546875 L 6.761719 14.546875 C 6.855469 14.546875 6.890625 14.519531 6.886719 14.425781 C 6.886719 14.277344 6.886719 14.128906 6.886719 13.980469 C 6.882812 13.902344 6.929688 13.8125 6.867188 13.761719 Z M 6.867188 13.761719 "
    />
  </g>
</svg>
